# xmcd
#
# Track frame offsets:
#	150
#	24912
#	41755
#	61660
#
# Disc length: 1107 seconds
#
# Revision: 0
# Processed by: cddbd v1.5PL3 Copyright (c) Steve Scherf et al.
# Submitted via: dBpowerAMP V4.0
#
DISCID=26045104
DTITLE=Odd Jarle Hanssen - White Christmas
DYEAR=1999
DGENRE=Country
TTITLE0=White Christmas
TTITLE1=Have Yourself A Merry Little Christmas
TTITLE2=Nordnorsk julesalme
TTITLE3=White Christmas (without recitation)
EXTD=
EXTT0=
EXTT1=
EXTT2=
EXTT3=
PLAYORDER=
